<svg xmlns="http://www.w3.org/2000/svg" viewBox="0 0 64 64">
  <rect width="64" height="64" fill="#05080b"/>
  <rect x="2.5" y="2.5" width="59" height="59" fill="none" stroke="#26343b"/>
  <path d="M31 10 11 54h10l4-10h14l4 10h10L33 10h-2Zm1 16 4 10h-8l4-10Z" fill="#ff38b8" transform="translate(-2 1)"/>
  <path d="M31 10 11 54h10l4-10h14l4 10h10L33 10h-2Zm1 16 4 10h-8l4-10Z" fill="#49eaff" transform="translate(2 -1)"/>
  <path d="M31 10 11 54h10l4-10h14l4 10h10L33 10h-2Zm1 16 4 10h-8l4-10Z" fill="#f5f5ef"/>
  <rect x="7" y="21" width="22" height="3" fill="#05080b"/>
  <rect x="35" y="39" width="21" height="2" fill="#05080b"/>
  <rect x="10" y="22" width="13" height="1" fill="#49eaff"/>
  <rect x="41" y="39" width="12" height="1" fill="#ff38b8"/>
</svg>
